<svg viewBox="0 0 1920 1080" xmlns="http://www.w3.org/2000/svg" font-family="Arial, sans-serif">
<defs>
    <marker id="arrow" markerWidth="9" markerHeight="9" refX="5" refY="3" orient="auto" markerUnits="strokeWidth">
      <path d="M0,0 L0,6 L6.5,3 z" fill="#2563EB"/>
    </marker>
    <marker id="arrow-dash" markerWidth="9" markerHeight="9" refX="5" refY="3" orient="auto" markerUnits="strokeWidth">
      <path d="M0,0 L0,6 L6.5,3 z" fill="#2563EB"/>
    </marker></defs>
<rect x="0" y="0" width="1920" height="1080" fill="#FFFFFF"/>
<text x="50" y="62" font-size="38" font-weight="800" fill="#0F172A">HomeServer Architecture</text>
<text x="50" y="94" font-size="18" font-weight="500" fill="#64748B">Modern Self-Hosted Infrastructure</text>

    <g>
      <rect x="1010.0" y="30" width="300" height="62" rx="10" ry="10" fill="#FFFFFF" stroke="#E5E7EB" stroke-width="1.5"/>
      
    <circle cx="1046.0" cy="61.0" r="15" fill="none" stroke="#2563EB" stroke-width="2.2"/>
    <ellipse cx="1046.0" cy="61.0" rx="6.3" ry="15" fill="none" stroke="#2563EB" stroke-width="2.2"/>
    <line x1="1031.0" y1="61.0" x2="1061.0" y2="61.0" stroke="#2563EB" stroke-width="2.2"/>
    <path d="M 1032.2 53.5 Q 1046.0 49.75 1059.8 53.5" fill="none" stroke="#2563EB" stroke-width="2.2"/>
    <path d="M 1032.2 68.5 Q 1046.0 72.25 1059.8 68.5" fill="none" stroke="#2563EB" stroke-width="2.2"/>
    
      <text x="1080.0" y="67.0" font-family="Arial, sans-serif" font-size="19" font-weight="700" fill="#0F172A">Internet</text>
    </g>

    <g>
      <rect x="1010.0" y="105" width="300" height="62" rx="10" ry="10" fill="#FFFFFF" stroke="#E5E7EB" stroke-width="1.5"/>
      
    <path d="M 1022.0 141.6
             Q 1019.6 134.4 1030.8 132.0
             Q 1035.6 120.8 1046.8 127.2
             Q 1053.2 123.2 1058.0 132.0
             Q 1062.8 132.0 1062.0 138.4
             Q 1065.2 139.2 1064.4 144.8
             Q 1063.6 148.0 1058.8 148.0
             L 1026.0 148.0
             Q 1019.6 147.0 1022.0 141.6 Z"
      fill="#F38020"/>
    <path d="M 1050.0 145.6 Q 1054.0 140.0 1060.4 142.4"
      fill="none" stroke="#FAAD3F" stroke-width="3" stroke-linecap="round"/>
    
      <text x="1080.0" y="142.0" font-family="Arial, sans-serif" font-size="19" font-weight="700" fill="#0F172A">Cloudflare Tunnel</text>
    </g>

    <g>
      <rect x="1010.0" y="180" width="300" height="62" rx="10" ry="10" fill="#FFFFFF" stroke="#E5E7EB" stroke-width="1.5"/>
      
    <rect x="1030.0" y="195.0" width="32" height="32" rx="7" fill="#009639"/>
    <path d="M 1038.0 202.0 L 1038.0 220.0 M 1038.0 202.0 L 1054.0 220.0 M 1054.0 202.0 L 1054.0 220.0"
      fill="none" stroke="#FFFFFF" stroke-width="3" stroke-linecap="round" stroke-linejoin="round"/>
    
      <text x="1080.0" y="217.0" font-family="Arial, sans-serif" font-size="19" font-weight="700" fill="#0F172A">Nginx Reverse Proxy</text>
    </g>
<path d="M 1160 92 L 1160 105" stroke="#2563EB" stroke-width="2" fill="none" marker-end="url(#arrow)"/>
<path d="M 1160 167 L 1160 180" stroke="#2563EB" stroke-width="2" fill="none" marker-end="url(#arrow)"/>
<line x1="30" y1="262" x2="1890" y2="262" stroke="#E2E8F0" stroke-width="1.5"/>

    <circle cx="70" cy="158" r="26" fill="#DBEAFE"/>
    
    <circle cx="70" cy="158" r="15" fill="none" stroke="#2563EB" stroke-width="2.2"/>
    <ellipse cx="70" cy="158" rx="6.3" ry="15" fill="none" stroke="#2563EB" stroke-width="2.2"/>
    <line x1="55" y1="158" x2="85" y2="158" stroke="#2563EB" stroke-width="2.2"/>
    <path d="M 56.2 150.5 Q 70 146.75 83.8 150.5" fill="none" stroke="#2563EB" stroke-width="2.2"/>
    <path d="M 56.2 165.5 Q 70 169.25 83.8 165.5" fill="none" stroke="#2563EB" stroke-width="2.2"/>
    
    <text x="115" y="166" font-family="Arial, sans-serif" font-size="22" font-weight="700" fill="#2563EB">Internet</text>
    

    <g>
      <rect x="590.0" y="322" width="280" height="62" rx="10" ry="10" fill="#FFFFFF" stroke="#E5E7EB" stroke-width="1.5"/>
      
    <circle cx="626.0" cy="353.0" r="3.52" fill="#61DAFB"/>
    <ellipse cx="626.0" cy="353.0" rx="16" ry="6.72" fill="none" stroke="#61DAFB" stroke-width="2.2" transform="rotate(0 626.0 353.0)"/><ellipse cx="626.0" cy="353.0" rx="16" ry="6.72" fill="none" stroke="#61DAFB" stroke-width="2.2" transform="rotate(60 626.0 353.0)"/><ellipse cx="626.0" cy="353.0" rx="16" ry="6.72" fill="none" stroke="#61DAFB" stroke-width="2.2" transform="rotate(120 626.0 353.0)"/>
    
      <text x="660.0" y="359.0" font-family="Arial, sans-serif" font-size="19" font-weight="700" fill="#0F172A">React</text>
    </g>

    <g>
      <rect x="1020.0" y="322" width="280" height="62" rx="10" ry="10" fill="#FFFFFF" stroke="#E5E7EB" stroke-width="1.5"/>
      
    <path d="M 1040.0 341.0 L 1049.6 337.0 L 1049.6 351.4 L 1060.8 345.0
             L 1072.0 351.4 L 1072.0 367.4 L 1060.8 373.8
             L 1049.6 367.4 L 1049.6 354.6 L 1040.0 361.0 Z"
      fill="none" stroke="#FF2D20" stroke-width="2.4" stroke-linejoin="round" stroke-linecap="round"/>
    
      <text x="1090.0" y="359.0" font-family="Arial, sans-serif" font-size="19" font-weight="700" fill="#0F172A">Laravel API</text>
    </g>

    <g>
      <rect x="1450.0" y="322" width="280" height="62" rx="10" ry="10" fill="#FFFFFF" stroke="#E5E7EB" stroke-width="1.5"/>
      
    <circle cx="1486.0" cy="353.0" r="16" fill="#009688"/>
    <path d="M 1488.0 342.6 L 1478.8 354.6 L 1485.2 354.6 L 1482.8 363.4 L 1494.0 352.2 L 1487.6 352.2 Z"
      fill="#FFFFFF"/>
    
      <text x="1520.0" y="359.0" font-family="Arial, sans-serif" font-size="19" font-weight="700" fill="#0F172A">FastAPI</text>
    </g>
<path d="M 1160 242 L 1160 254 Q 1160 264 1150 264 L 740.0 264 Q 730.0 264 730.0 274 L 730.0 322" stroke="#2563EB" stroke-width="2" fill="none" marker-end="url(#arrow)"/>
<path d="M 1160 242 L 1160.0 322" stroke="#2563EB" stroke-width="2" fill="none" marker-end="url(#arrow)"/>
<path d="M 1160 242 L 1160 254 Q 1160 264 1170 264 L 1580.0 264 Q 1590.0 264 1590.0 274 L 1590.0 322" stroke="#2563EB" stroke-width="2" fill="none" marker-end="url(#arrow)"/>

    <circle cx="70" cy="353.0" r="26" fill="#DBEAFE"/>
    
    <polygon points="70.0,339.0 84,346.84 70.0,354.68 56,346.84" fill="none" stroke="#2563EB" stroke-width="2" stroke-linejoin="round"/>
    <polyline points="56,351.32 70.0,359.16 84,351.32" fill="none" stroke="#2563EB" stroke-width="2" stroke-linejoin="round"/>
    <polyline points="56,356.36 70.0,364.2 84,356.36" fill="none" stroke="#2563EB" stroke-width="2" stroke-linejoin="round"/>
    
    <text x="115" y="361.0" font-family="Arial, sans-serif" font-size="22" font-weight="700" fill="#2563EB">Application Layer</text>
    

    <g>
      <rect x="770.0" y="428" width="300" height="62" rx="10" ry="10" fill="#FFFFFF" stroke="#E5E7EB" stroke-width="1.5"/>
      
    <path d="M 791.6 467.0
             Q 794.8 449.4 807.6 447.0
             Q 815.6 445.4 819.6 451.0
             Q 822.0 454.2 818.0 458.2
             Q 821.2 461.4 818.0 464.6
             Q 814.0 467.8 806.0 467.0
             Q 798.0 471.8 791.6 467.0 Z" fill="#003545"/>
    <circle cx="814.8" cy="453.4" r="2" fill="#FFFFFF"/>
    
      <text x="840.0" y="465.0" font-family="Arial, sans-serif" font-size="19" font-weight="700" fill="#0F172A">MariaDB</text>
    </g>

    <g>
      <rect x="1250.0" y="428" width="300" height="62" rx="10" ry="10" fill="#FFFFFF" stroke="#E5E7EB" stroke-width="1.5"/>
      
    <path d="M 1286.0 448.28 L 1299.6 453.4 L 1286.0 458.52 L 1272.4 453.4 Z" fill="#DC382D"/>
    <path d="M 1286.0 453.88 L 1299.6 459.0 L 1286.0 464.12 L 1272.4 459.0 Z" fill="#DC382D"/>
    <path d="M 1286.0 459.48 L 1299.6 464.6 L 1286.0 469.72 L 1272.4 464.6 Z" fill="#DC382D"/>
    
      <text x="1320.0" y="465.0" font-family="Arial, sans-serif" font-size="19" font-weight="700" fill="#0F172A">Redis</text>
    </g>
<path d="M 730.0 384 L 730.0 449.0 Q 730.0 459.0 740.0 459.0 L 770.0 459.0" stroke="#2563EB" stroke-width="2" fill="none" marker-end="url(#arrow)"/>
<path d="M 1160.0 384 L 1160.0 396 Q 1160.0 406 1150.0 406 L 930.0 406 Q 920.0 406 920.0 416 L 920.0 428" stroke="#2563EB" stroke-width="2" fill="none" marker-end="url(#arrow)"/>
<path d="M 1160.0 384 L 1160.0 396 Q 1160.0 406 1170.0 406 L 1390.0 406 Q 1400.0 406 1400.0 416 L 1400.0 428" stroke="#2563EB" stroke-width="2" fill="none" marker-end="url(#arrow)"/>
<path d="M 1590.0 384 L 1590.0 449.0 Q 1590.0 459.0 1580.0 459.0 L 1550.0 459.0" stroke="#2563EB" stroke-width="2" fill="none" marker-end="url(#arrow)"/>

    <circle cx="70" cy="459.0" r="26" fill="#DBEAFE"/>
    
    <ellipse cx="70.0" cy="449.48" rx="11.76" ry="4.48" fill="none" stroke="#2563EB" stroke-width="2"/>
    <path d="M 56 449.48 L 56 468.52 Q 56 473.0 70.0 473.0 Q 84 473.0 84 468.52 L 84 449.48"
      fill="none" stroke="#2563EB" stroke-width="2"/>
    <path d="M 56 459.0 Q 70.0 463.48 84 459.0" fill="none" stroke="#2563EB" stroke-width="2"/>
    
    <text x="115" y="467.0" font-family="Arial, sans-serif" font-size="22" font-weight="700" fill="#2563EB">Data Layer</text>
    
<line x1="30" y1="526" x2="1890" y2="526" stroke="#E2E8F0" stroke-width="1.5"/>

    <g>
      <rect x="855.0" y="566" width="260" height="62" rx="10" ry="10" fill="#FFFFFF" stroke="#E5E7EB" stroke-width="1.5"/>
      
    <rect x="875.0" y="581.0" width="32" height="28.8" rx="3" fill="none" stroke="#334155" stroke-width="2"/>
    <line x1="875.0" y1="590.6" x2="907.0" y2="590.6" stroke="#334155" stroke-width="1.6"/>
    <line x1="875.0" y1="600.2" x2="907.0" y2="600.2" stroke="#334155" stroke-width="1.6"/>
    <circle cx="880.76" cy="585.8" r="1.8" fill="#334155"/>
    <circle cx="880.76" cy="595.4" r="1.8" fill="#334155"/>
    <circle cx="880.76" cy="605.0" r="1.8" fill="#334155"/>
    
      <text x="925.0" y="603.0" font-family="Arial, sans-serif" font-size="19" font-weight="700" fill="#0F172A">Node Exporter</text>
    </g>

    <g>
      <rect x="1205.0" y="566" width="260" height="62" rx="10" ry="10" fill="#FFFFFF" stroke="#E5E7EB" stroke-width="1.5"/>
      
    <rect x="1225.0" y="581.0" width="32" height="23.04" rx="3" fill="none" stroke="#009688" stroke-width="2"/>
    <line x1="1237.8" y1="604.04" x2="1237.8" y2="609.8" stroke="#009688" stroke-width="2"/>
    <line x1="1231.4" y1="609.8" x2="1244.2" y2="609.8" stroke="#009688" stroke-width="2"/>
    <polyline points="1228.84,593.8 1234.6,593.8 1237.8,586.76 1241.0,598.6 1244.2,593.8 1252.2,593.8"
      fill="none" stroke="#009688" stroke-width="1.8" stroke-linejoin="round" stroke-linecap="round"/>
    
      <text x="1275.0" y="603.0" font-family="Arial, sans-serif" font-size="19" font-weight="700" fill="#0F172A">cAdvisor</text>
    </g>

    <g>
      <rect x="1555.0" y="566" width="260" height="62" rx="10" ry="10" fill="#FFFFFF" stroke="#E5E7EB" stroke-width="1.5"/>
      
    <path d="M 1575.0 597.0 Q 1572.6 609.0 1589.4 609.0
             L 1605.4 609.0
             Q 1611.8 609.0 1612.6 600.2
             Q 1607.8 596.2 1603.0 598.6
             Q 1601.4 592.2 1595.8 594.6
             Q 1593.4 589.8 1583.8 591.4
             Q 1577.4 596.2 1575.0 597.0 Z" fill="#2496ED"/>
    <rect x="1580.6" y="588.2" width="6.72" height="6.72" fill="#2496ED"/><rect x="1589.32" y="588.2" width="6.72" height="6.72" fill="#2496ED"/><rect x="1598.04" y="588.2" width="6.72" height="6.72" fill="#2496ED"/><rect x="1589.32" y="580.2" width="6.72" height="6.72" fill="#2496ED"/>
    
      <text x="1625.0" y="603.0" font-family="Arial, sans-serif" font-size="19" font-weight="700" fill="#0F172A">Docker</text>
    </g>

    <g>
      <rect x="1010.0" y="672" width="300" height="62" rx="10" ry="10" fill="#FFFFFF" stroke="#E5E7EB" stroke-width="1.5"/>
      
    <circle cx="1046.0" cy="703.0" r="16" fill="#E6522C"/>
    <path d="M 1046.0 693.4
             Q 1054.0 701.4 1048.4 707.0
             Q 1051.6 711.8 1046.0 713.4
             Q 1040.4 711.8 1043.6 707.0
             Q 1038.0 701.4 1046.0 693.4 Z" fill="#FFFFFF"/>
    <line x1="1039.6" y1="711.8" x2="1052.4" y2="711.8" stroke="#E6522C" stroke-width="2"/>
    
      <text x="1080.0" y="709.0" font-family="Arial, sans-serif" font-size="19" font-weight="700" fill="#0F172A">Prometheus</text>
    </g>
<path d="M 985.0 628 L 985.0 640 Q 985.0 650 995.0 650 L 1150 650 Q 1160 650 1160 660 L 1160 672" stroke="#2563EB" stroke-width="2" fill="none" marker-end="url(#arrow)"/>
<path d="M 1335.0 628 L 1335.0 640 Q 1335.0 650 1325.0 650 L 1170 650 Q 1160 650 1160 660 L 1160 672" stroke="#2563EB" stroke-width="2" fill="none" marker-end="url(#arrow)"/>
<path d="M 1555.0 597.0 L 1465.0 597.0" stroke="#2563EB" stroke-width="2" fill="none" stroke-dasharray="7,6" marker-end="url(#arrow)"/>

    <g>
      <rect x="1010.0" y="764" width="300" height="62" rx="10" ry="10" fill="#FFFFFF" stroke="#E5E7EB" stroke-width="1.5"/>
      
    <circle cx="1046.0" cy="795.0" r="16" fill="#F46800"/>
    <circle cx="1046.0" cy="795.0" r="8.8" fill="none" stroke="#FFCC33" stroke-width="2.5"/>
    <circle cx="1050.8" cy="790.2" r="3.52" fill="#FFCC33"/>
    
      <text x="1080.0" y="801.0" font-family="Arial, sans-serif" font-size="19" font-weight="700" fill="#0F172A">Grafana</text>
    </g>
<path d="M 1160 734 L 1160 764" stroke="#2563EB" stroke-width="2" fill="none" marker-end="url(#arrow)"/>

    <circle cx="70" cy="696.0" r="26" fill="#DBEAFE"/>
    
    <rect x="56" y="682.0" width="28" height="28" rx="5" fill="none" stroke="#2563EB" stroke-width="2"/>
    <polyline points="61.04,700.2 67.2,693.76 72.24,698.24 78.96,690.4"
      fill="none" stroke="#2563EB" stroke-width="2" stroke-linecap="round" stroke-linejoin="round"/>
    <polyline points="74.48,690.4 78.96,690.4 78.96,694.88" fill="none" stroke="#2563EB" stroke-width="2" stroke-linecap="round" stroke-linejoin="round"/>
    
    <text x="115" y="704.0" font-family="Arial, sans-serif" font-size="22" font-weight="700" fill="#2563EB">Monitoring Layer</text>
    

    <g>
      <rect x="780.0" y="870" width="300" height="62" rx="10" ry="10" fill="#FFFFFF" stroke="#E5E7EB" stroke-width="1.5"/>
      
    <rect x="808.0" y="891.4" width="16" height="20.8" rx="3" fill="none" stroke="#13BEF9" stroke-width="2.3"/>
    <line x1="816.0" y1="885.0" x2="816.0" y2="891.4" stroke="#13BEF9" stroke-width="2.3"/>
    <line x1="811.2" y1="888.1999999999999" x2="820.8" y2="888.1999999999999" stroke="#13BEF9" stroke-width="2.3"/>
    <line x1="810.0" y1="901.8" x2="822.0" y2="901.8" stroke="#13BEF9" stroke-width="1.6"/>
    
      <text x="850.0" y="907.0" font-family="Arial, sans-serif" font-size="19" font-weight="700" fill="#0F172A">Portainer</text>
    </g>

    <g>
      <rect x="1240.0" y="870" width="300" height="62" rx="10" ry="10" fill="#FFFFFF" stroke="#E5E7EB" stroke-width="1.5"/>
      
    <circle cx="1276.0" cy="901.0" r="16" fill="#5CDD8B"/>
    <circle cx="1276.0" cy="901.0" r="6.72" fill="none" stroke="#FFFFFF" stroke-width="2.5"/>
    
      <text x="1310.0" y="907.0" font-family="Arial, sans-serif" font-size="19" font-weight="700" fill="#0F172A">Uptime Kuma</text>
    </g>
<path d="M 1160 826 L 1160 836 Q 1160 846 1150 846 L 940.0 846 Q 930.0 846 930.0 856 L 930.0 870" stroke="#2563EB" stroke-width="2" fill="none" marker-end="url(#arrow)"/>
<path d="M 1160 826 L 1160 836 Q 1160 846 1170 846 L 1380.0 846 Q 1390.0 846 1390.0 856 L 1390.0 870" stroke="#2563EB" stroke-width="2" fill="none" marker-end="url(#arrow)"/>
<path d="M 1240.0 901.0 L 1080.0 901.0" stroke="#2563EB" stroke-width="2" fill="none" marker-end="url(#arrow)"/>
<path d="M 1685.0 628 L 1685.0 891.0 Q 1685.0 901.0 1675.0 901.0 L 1540.0 901.0" stroke="#2563EB" stroke-width="2" fill="none" marker-end="url(#arrow)"/>
</svg>